<svg width="15" height="9" viewBox="0 0 15 9" fill="none" xmlns="http://www.w3.org/2000/svg">
<g clip-path="url(#clip0_13_5563)">
<path d="M1.37507 5.30375L11.9822 5.30375L9.65186 7.63411C9.33043 7.95554 9.33043 8.43768 9.65186 8.75911C9.97328 9.08054 10.4554 9.08054 10.7769 8.75911L14.4733 5.06268C14.7947 4.74125 14.7947 4.25911 14.4733 3.93768L10.7769 0.241254C10.4554 -0.0801748 9.97328 -0.0801749 9.65186 0.241254C9.33043 0.562683 9.33043 1.04483 9.65186 1.36625L11.9822 3.69661L1.37507 3.69661C0.973283 3.69661 0.571497 4.01804 0.571497 4.50018C0.571497 4.98232 0.973283 5.30375 1.37507 5.30375Z" fill="#4089ED"/>
</g>
<defs>
<clipPath id="clip0_13_5563">
<rect width="14.1429" height="9" fill="white" transform="translate(14.7144 9.00018) rotate(-180)"/>
</clipPath>
</defs>
</svg>
