<svg width="83" height="115" viewBox="0 0 83 115" fill="none" xmlns="http://www.w3.org/2000/svg">
<g opacity="0.3">
<mask id="mask0_13_6267" style="mask-type:alpha" maskUnits="userSpaceOnUse" x="11" y="0" width="12" height="11">
<path d="M16.7905 10.425C19.6781 10.425 22.0189 8.09121 22.0189 5.21245C22.0189 2.33368 19.6781 0 16.7905 0C13.903 0 11.5621 2.33368 11.5621 5.21245C11.5621 8.09121 13.903 10.425 16.7905 10.425Z" fill="url(#paint0_linear_13_6267)"/>
</mask>
<g mask="url(#mask0_13_6267)">
<path d="M16.7905 10.425C19.6781 10.425 22.0189 8.09121 22.0189 5.21245C22.0189 2.33368 19.6781 0 16.7905 0C13.903 0 11.5621 2.33368 11.5621 5.21245C11.5621 8.09121 13.903 10.425 16.7905 10.425Z" fill="url(#paint1_linear_13_6267)"/>
</g>
<mask id="mask1_13_6267" style="mask-type:alpha" maskUnits="userSpaceOnUse" x="41" y="0" width="12" height="11">
<path d="M47.0717 10.425C49.9592 10.425 52.3 8.09121 52.3 5.21245C52.3 2.33368 49.9592 0 47.0717 0C44.1841 0 41.8433 2.33368 41.8433 5.21245C41.8433 8.09121 44.1841 10.425 47.0717 10.425Z" fill="url(#paint2_linear_13_6267)"/>
</mask>
<g mask="url(#mask1_13_6267)">
<path d="M47.0717 10.425C49.9592 10.425 52.3 8.09121 52.3 5.21245C52.3 2.33368 49.9592 0 47.0717 0C44.1841 0 41.8433 2.33368 41.8433 5.21245C41.8433 8.09121 44.1841 10.425 47.0717 10.425Z" fill="url(#paint3_linear_13_6267)"/>
</g>
<mask id="mask2_13_6267" style="mask-type:alpha" maskUnits="userSpaceOnUse" x="72" y="0" width="11" height="11">
<path d="M77.3526 10.425C80.2402 10.425 82.581 8.09121 82.581 5.21245C82.581 2.33368 80.2402 0 77.3526 0C74.4651 0 72.1243 2.33368 72.1243 5.21245C72.1243 8.09121 74.4651 10.425 77.3526 10.425Z" fill="url(#paint4_linear_13_6267)"/>
</mask>
<g mask="url(#mask2_13_6267)">
<path d="M77.3526 10.425C80.2402 10.425 82.581 8.09121 82.581 5.21245C82.581 2.33368 80.2402 0 77.3526 0C74.4651 0 72.1243 2.33368 72.1243 5.21245C72.1243 8.09121 74.4651 10.425 77.3526 10.425Z" fill="url(#paint5_linear_13_6267)"/>
</g>
<mask id="mask3_13_6267" style="mask-type:alpha" maskUnits="userSpaceOnUse" x="11" y="26" width="12" height="11">
<path d="M16.7905 36.5958C19.6781 36.5958 22.0189 34.2621 22.0189 31.3833C22.0189 28.5046 19.6781 26.1709 16.7905 26.1709C13.903 26.1709 11.5621 28.5046 11.5621 31.3833C11.5621 34.2621 13.903 36.5958 16.7905 36.5958Z" fill="url(#paint6_linear_13_6267)"/>
</mask>
<g mask="url(#mask3_13_6267)">
<path d="M16.7905 36.5958C19.6781 36.5958 22.0189 34.2621 22.0189 31.3833C22.0189 28.5046 19.6781 26.1709 16.7905 26.1709C13.903 26.1709 11.5621 28.5046 11.5621 31.3833C11.5621 34.2621 13.903 36.5958 16.7905 36.5958Z" fill="url(#paint7_linear_13_6267)"/>
</g>
<mask id="mask4_13_6267" style="mask-type:alpha" maskUnits="userSpaceOnUse" x="41" y="26" width="12" height="11">
<path d="M47.0717 36.5958C49.9592 36.5958 52.3 34.2621 52.3 31.3833C52.3 28.5046 49.9592 26.1709 47.0717 26.1709C44.1841 26.1709 41.8433 28.5046 41.8433 31.3833C41.8433 34.2621 44.1841 36.5958 47.0717 36.5958Z" fill="url(#paint8_linear_13_6267)"/>
</mask>
<g mask="url(#mask4_13_6267)">
<path d="M47.0717 36.5958C49.9592 36.5958 52.3 34.2621 52.3 31.3833C52.3 28.5046 49.9592 26.1709 47.0717 26.1709C44.1841 26.1709 41.8433 28.5046 41.8433 31.3833C41.8433 34.2621 44.1841 36.5958 47.0717 36.5958Z" fill="url(#paint9_linear_13_6267)"/>
</g>
<mask id="mask5_13_6267" style="mask-type:alpha" maskUnits="userSpaceOnUse" x="72" y="26" width="11" height="11">
<path d="M77.3526 36.5958C80.2402 36.5958 82.581 34.2621 82.581 31.3833C82.581 28.5046 80.2402 26.1709 77.3526 26.1709C74.4651 26.1709 72.1243 28.5046 72.1243 31.3833C72.1243 34.2621 74.4651 36.5958 77.3526 36.5958Z" fill="url(#paint10_linear_13_6267)"/>
</mask>
<g mask="url(#mask5_13_6267)">
<path d="M77.3526 36.5958C80.2402 36.5958 82.581 34.2621 82.581 31.3833C82.581 28.5046 80.2402 26.1709 77.3526 26.1709C74.4651 26.1709 72.1243 28.5046 72.1243 31.3833C72.1243 34.2621 74.4651 36.5958 77.3526 36.5958Z" fill="url(#paint11_linear_13_6267)"/>
</g>
<mask id="mask6_13_6267" style="mask-type:alpha" maskUnits="userSpaceOnUse" x="11" y="52" width="12" height="11">
<path d="M16.7905 62.7126C19.6781 62.7126 22.0189 60.3789 22.0189 57.5001C22.0189 54.6213 19.6781 52.2876 16.7905 52.2876C13.903 52.2876 11.5621 54.6213 11.5621 57.5001C11.5621 60.3789 13.903 62.7126 16.7905 62.7126Z" fill="url(#paint12_linear_13_6267)"/>
</mask>
<g mask="url(#mask6_13_6267)">
<path d="M16.7905 62.7126C19.6781 62.7126 22.0189 60.3789 22.0189 57.5001C22.0189 54.6213 19.6781 52.2876 16.7905 52.2876C13.903 52.2876 11.5621 54.6213 11.5621 57.5001C11.5621 60.3789 13.903 62.7126 16.7905 62.7126Z" fill="url(#paint13_linear_13_6267)"/>
</g>
<mask id="mask7_13_6267" style="mask-type:alpha" maskUnits="userSpaceOnUse" x="41" y="52" width="12" height="11">
<path d="M47.0717 62.7126C49.9592 62.7126 52.3 60.3789 52.3 57.5001C52.3 54.6213 49.9592 52.2876 47.0717 52.2876C44.1841 52.2876 41.8433 54.6213 41.8433 57.5001C41.8433 60.3789 44.1841 62.7126 47.0717 62.7126Z" fill="url(#paint14_linear_13_6267)"/>
</mask>
<g mask="url(#mask7_13_6267)">
<path d="M47.0717 62.7126C49.9592 62.7126 52.3 60.3789 52.3 57.5001C52.3 54.6213 49.9592 52.2876 47.0717 52.2876C44.1841 52.2876 41.8433 54.6213 41.8433 57.5001C41.8433 60.3789 44.1841 62.7126 47.0717 62.7126Z" fill="url(#paint15_linear_13_6267)"/>
</g>
<mask id="mask8_13_6267" style="mask-type:alpha" maskUnits="userSpaceOnUse" x="72" y="52" width="11" height="11">
<path d="M77.3526 62.7126C80.2402 62.7126 82.581 60.3789 82.581 57.5001C82.581 54.6213 80.2402 52.2876 77.3526 52.2876C74.4651 52.2876 72.1243 54.6213 72.1243 57.5001C72.1243 60.3789 74.4651 62.7126 77.3526 62.7126Z" fill="url(#paint16_linear_13_6267)"/>
</mask>
<g mask="url(#mask8_13_6267)">
<path d="M77.3526 62.7126C80.2402 62.7126 82.581 60.3789 82.581 57.5001C82.581 54.6213 80.2402 52.2876 77.3526 52.2876C74.4651 52.2876 72.1243 54.6213 72.1243 57.5001C72.1243 60.3789 74.4651 62.7126 77.3526 62.7126Z" fill="url(#paint17_linear_13_6267)"/>
</g>
<mask id="mask9_13_6267" style="mask-type:alpha" maskUnits="userSpaceOnUse" x="11" y="78" width="12" height="11">
<path d="M16.7905 88.8835C19.6781 88.8835 22.0189 86.5497 22.0189 83.6709C22.0189 80.7922 19.6781 78.4585 16.7905 78.4585C13.903 78.4585 11.5621 80.7922 11.5621 83.6709C11.5621 86.5497 13.903 88.8835 16.7905 88.8835Z" fill="url(#paint18_linear_13_6267)"/>
</mask>
<g mask="url(#mask9_13_6267)">
<path d="M16.7905 88.8835C19.6781 88.8835 22.0189 86.5497 22.0189 83.6709C22.0189 80.7922 19.6781 78.4585 16.7905 78.4585C13.903 78.4585 11.5621 80.7922 11.5621 83.6709C11.5621 86.5497 13.903 88.8835 16.7905 88.8835Z" fill="url(#paint19_linear_13_6267)"/>
</g>
<mask id="mask10_13_6267" style="mask-type:alpha" maskUnits="userSpaceOnUse" x="41" y="78" width="12" height="11">
<path d="M47.0717 88.8835C49.9592 88.8835 52.3 86.5497 52.3 83.6709C52.3 80.7922 49.9592 78.4585 47.0717 78.4585C44.1841 78.4585 41.8433 80.7922 41.8433 83.6709C41.8433 86.5497 44.1841 88.8835 47.0717 88.8835Z" fill="url(#paint20_linear_13_6267)"/>
</mask>
<g mask="url(#mask10_13_6267)">
<path d="M47.0717 88.8835C49.9592 88.8835 52.3 86.5497 52.3 83.6709C52.3 80.7922 49.9592 78.4585 47.0717 78.4585C44.1841 78.4585 41.8433 80.7922 41.8433 83.6709C41.8433 86.5497 44.1841 88.8835 47.0717 88.8835Z" fill="url(#paint21_linear_13_6267)"/>
</g>
<mask id="mask11_13_6267" style="mask-type:alpha" maskUnits="userSpaceOnUse" x="72" y="78" width="11" height="11">
<path d="M77.3526 88.8835C80.2402 88.8835 82.581 86.5497 82.581 83.6709C82.581 80.7922 80.2402 78.4585 77.3526 78.4585C74.4651 78.4585 72.1243 80.7922 72.1243 83.6709C72.1243 86.5497 74.4651 88.8835 77.3526 88.8835Z" fill="url(#paint22_linear_13_6267)"/>
</mask>
<g mask="url(#mask11_13_6267)">
<path d="M77.3526 88.8835C80.2402 88.8835 82.581 86.5497 82.581 83.6709C82.581 80.7922 80.2402 78.4585 77.3526 78.4585C74.4651 78.4585 72.1243 80.7922 72.1243 83.6709C72.1243 86.5497 74.4651 88.8835 77.3526 88.8835Z" fill="url(#paint23_linear_13_6267)"/>
</g>
<mask id="mask12_13_6267" style="mask-type:alpha" maskUnits="userSpaceOnUse" x="11" y="104" width="12" height="11">
<path d="M16.7905 115C19.6781 115 22.0189 112.666 22.0189 109.787C22.0189 106.909 19.6781 104.575 16.7905 104.575C13.903 104.575 11.5621 106.909 11.5621 109.787C11.5621 112.666 13.903 115 16.7905 115Z" fill="url(#paint24_linear_13_6267)"/>
</mask>
<g mask="url(#mask12_13_6267)">
<path d="M16.7905 115C19.6781 115 22.0189 112.666 22.0189 109.787C22.0189 106.909 19.6781 104.575 16.7905 104.575C13.903 104.575 11.5621 106.909 11.5621 109.787C11.5621 112.666 13.903 115 16.7905 115Z" fill="url(#paint25_linear_13_6267)"/>
</g>
<mask id="mask13_13_6267" style="mask-type:alpha" maskUnits="userSpaceOnUse" x="41" y="104" width="12" height="11">
<path d="M47.0717 115C49.9592 115 52.3 112.666 52.3 109.787C52.3 106.909 49.9592 104.575 47.0717 104.575C44.1841 104.575 41.8433 106.909 41.8433 109.787C41.8433 112.666 44.1841 115 47.0717 115Z" fill="url(#paint26_linear_13_6267)"/>
</mask>
<g mask="url(#mask13_13_6267)">
<path d="M47.0717 115C49.9592 115 52.3 112.666 52.3 109.787C52.3 106.909 49.9592 104.575 47.0717 104.575C44.1841 104.575 41.8433 106.909 41.8433 109.787C41.8433 112.666 44.1841 115 47.0717 115Z" fill="url(#paint27_linear_13_6267)"/>
</g>
<mask id="mask14_13_6267" style="mask-type:alpha" maskUnits="userSpaceOnUse" x="72" y="104" width="11" height="11">
<path d="M77.3526 115C80.2402 115 82.581 112.666 82.581 109.787C82.581 106.909 80.2402 104.575 77.3526 104.575C74.4651 104.575 72.1243 106.909 72.1243 109.787C72.1243 112.666 74.4651 115 77.3526 115Z" fill="url(#paint28_linear_13_6267)"/>
</mask>
<g mask="url(#mask14_13_6267)">
<path d="M77.3526 115C80.2402 115 82.581 112.666 82.581 109.787C82.581 106.909 80.2402 104.575 77.3526 104.575C74.4651 104.575 72.1243 106.909 72.1243 109.787C72.1243 112.666 74.4651 115 77.3526 115Z" fill="url(#paint29_linear_13_6267)"/>
</g>
</g>
<defs>
<linearGradient id="paint0_linear_13_6267" x1="58.4049" y1="110.551" x2="-12.9967" y2="-71.2526" gradientUnits="userSpaceOnUse">
<stop/>
<stop offset="1" stop-color="white"/>
</linearGradient>
<linearGradient id="paint1_linear_13_6267" x1="58.4049" y1="110.551" x2="-12.9967" y2="-71.2526" gradientUnits="userSpaceOnUse">
<stop stop-color="#97C3F9"/>
<stop offset="1" stop-color="#93C1F9"/>
</linearGradient>
<linearGradient id="paint2_linear_13_6267" x1="84.6092" y1="100.259" x2="13.2076" y2="-81.5444" gradientUnits="userSpaceOnUse">
<stop/>
<stop offset="1" stop-color="white"/>
</linearGradient>
<linearGradient id="paint3_linear_13_6267" x1="84.6092" y1="100.259" x2="13.2076" y2="-81.5444" gradientUnits="userSpaceOnUse">
<stop stop-color="#97C3F9"/>
<stop offset="1" stop-color="#93C1F9"/>
</linearGradient>
<linearGradient id="paint4_linear_13_6267" x1="110.813" y1="89.9679" x2="39.4119" y2="-91.8359" gradientUnits="userSpaceOnUse">
<stop/>
<stop offset="1" stop-color="white"/>
</linearGradient>
<linearGradient id="paint5_linear_13_6267" x1="110.813" y1="89.9679" x2="39.4119" y2="-91.8359" gradientUnits="userSpaceOnUse">
<stop stop-color="#97C3F9"/>
<stop offset="1" stop-color="#93C1F9"/>
</linearGradient>
<linearGradient id="paint6_linear_13_6267" x1="49.4624" y1="114.062" x2="-21.9379" y2="-67.7404" gradientUnits="userSpaceOnUse">
<stop/>
<stop offset="1" stop-color="white"/>
</linearGradient>
<linearGradient id="paint7_linear_13_6267" x1="49.4624" y1="114.062" x2="-21.9379" y2="-67.7404" gradientUnits="userSpaceOnUse">
<stop stop-color="#97C3F9"/>
<stop offset="1" stop-color="#93C1F9"/>
</linearGradient>
<linearGradient id="paint8_linear_13_6267" x1="75.6668" y1="103.771" x2="4.2664" y2="-78.0318" gradientUnits="userSpaceOnUse">
<stop/>
<stop offset="1" stop-color="white"/>
</linearGradient>
<linearGradient id="paint9_linear_13_6267" x1="75.6668" y1="103.771" x2="4.2664" y2="-78.0318" gradientUnits="userSpaceOnUse">
<stop stop-color="#97C3F9"/>
<stop offset="1" stop-color="#93C1F9"/>
</linearGradient>
<linearGradient id="paint10_linear_13_6267" x1="101.871" y1="93.4793" x2="30.4707" y2="-88.3232" gradientUnits="userSpaceOnUse">
<stop/>
<stop offset="1" stop-color="white"/>
</linearGradient>
<linearGradient id="paint11_linear_13_6267" x1="101.871" y1="93.4793" x2="30.4707" y2="-88.3232" gradientUnits="userSpaceOnUse">
<stop stop-color="#97C3F9"/>
<stop offset="1" stop-color="#93C1F9"/>
</linearGradient>
<linearGradient id="paint12_linear_13_6267" x1="40.5201" y1="117.575" x2="-30.8815" y2="-64.2287" gradientUnits="userSpaceOnUse">
<stop/>
<stop offset="1" stop-color="white"/>
</linearGradient>
<linearGradient id="paint13_linear_13_6267" x1="40.5201" y1="117.575" x2="-30.8815" y2="-64.2287" gradientUnits="userSpaceOnUse">
<stop stop-color="#97C3F9"/>
<stop offset="1" stop-color="#93C1F9"/>
</linearGradient>
<linearGradient id="paint14_linear_13_6267" x1="66.7244" y1="107.283" x2="-4.67722" y2="-74.5204" gradientUnits="userSpaceOnUse">
<stop/>
<stop offset="1" stop-color="white"/>
</linearGradient>
<linearGradient id="paint15_linear_13_6267" x1="66.7244" y1="107.283" x2="-4.67722" y2="-74.5204" gradientUnits="userSpaceOnUse">
<stop stop-color="#97C3F9"/>
<stop offset="1" stop-color="#93C1F9"/>
</linearGradient>
<linearGradient id="paint16_linear_13_6267" x1="92.9287" y1="96.992" x2="21.5271" y2="-84.8119" gradientUnits="userSpaceOnUse">
<stop/>
<stop offset="1" stop-color="white"/>
</linearGradient>
<linearGradient id="paint17_linear_13_6267" x1="92.9287" y1="96.992" x2="21.5271" y2="-84.8119" gradientUnits="userSpaceOnUse">
<stop stop-color="#97C3F9"/>
<stop offset="1" stop-color="#93C1F9"/>
</linearGradient>
<linearGradient id="paint18_linear_13_6267" x1="31.5777" y1="121.087" x2="-39.8239" y2="-60.7167" gradientUnits="userSpaceOnUse">
<stop/>
<stop offset="1" stop-color="white"/>
</linearGradient>
<linearGradient id="paint19_linear_13_6267" x1="31.5777" y1="121.087" x2="-39.8239" y2="-60.7167" gradientUnits="userSpaceOnUse">
<stop stop-color="#97C3F9"/>
<stop offset="1" stop-color="#93C1F9"/>
</linearGradient>
<linearGradient id="paint20_linear_13_6267" x1="57.7821" y1="110.796" x2="-13.6196" y2="-71.0083" gradientUnits="userSpaceOnUse">
<stop/>
<stop offset="1" stop-color="white"/>
</linearGradient>
<linearGradient id="paint21_linear_13_6267" x1="57.7821" y1="110.796" x2="-13.6196" y2="-71.0083" gradientUnits="userSpaceOnUse">
<stop stop-color="#97C3F9"/>
<stop offset="1" stop-color="#93C1F9"/>
</linearGradient>
<linearGradient id="paint22_linear_13_6267" x1="83.9863" y1="100.504" x2="12.5847" y2="-81.2999" gradientUnits="userSpaceOnUse">
<stop/>
<stop offset="1" stop-color="white"/>
</linearGradient>
<linearGradient id="paint23_linear_13_6267" x1="83.9863" y1="100.504" x2="12.5847" y2="-81.2999" gradientUnits="userSpaceOnUse">
<stop stop-color="#97C3F9"/>
<stop offset="1" stop-color="#93C1F9"/>
</linearGradient>
<linearGradient id="paint24_linear_13_6267" x1="22.6353" y1="124.599" x2="-48.7663" y2="-57.2048" gradientUnits="userSpaceOnUse">
<stop/>
<stop offset="1" stop-color="white"/>
</linearGradient>
<linearGradient id="paint25_linear_13_6267" x1="22.6353" y1="124.599" x2="-48.7663" y2="-57.2048" gradientUnits="userSpaceOnUse">
<stop stop-color="#97C3F9"/>
<stop offset="1" stop-color="#93C1F9"/>
</linearGradient>
<linearGradient id="paint26_linear_13_6267" x1="48.8397" y1="114.307" x2="-22.5619" y2="-67.4964" gradientUnits="userSpaceOnUse">
<stop/>
<stop offset="1" stop-color="white"/>
</linearGradient>
<linearGradient id="paint27_linear_13_6267" x1="48.8397" y1="114.307" x2="-22.5619" y2="-67.4964" gradientUnits="userSpaceOnUse">
<stop stop-color="#97C3F9"/>
<stop offset="1" stop-color="#93C1F9"/>
</linearGradient>
<linearGradient id="paint28_linear_13_6267" x1="75.044" y1="104.016" x2="3.64237" y2="-77.7879" gradientUnits="userSpaceOnUse">
<stop/>
<stop offset="1" stop-color="white"/>
</linearGradient>
<linearGradient id="paint29_linear_13_6267" x1="75.044" y1="104.016" x2="3.64237" y2="-77.7879" gradientUnits="userSpaceOnUse">
<stop stop-color="#97C3F9"/>
<stop offset="1" stop-color="#93C1F9"/>
</linearGradient>
</defs>
</svg>
